<svg width="25" height="25" viewBox="0 0 25 25" fill="none" xmlns="http://www.w3.org/2000/svg">
    <path fill-rule="evenodd" clip-rule="evenodd" d="M0 12.5C0 5.59646 5.59646 0 12.5 0C19.4035 0 25 5.59646 25 12.5C25 19.4035 19.4035 25 12.5 25C5.59646 25 0 19.4035 0 12.5ZM12.5006 5.83333C10.6901 5.83333 10.4628 5.84125 9.75172 5.87359C9.04198 5.90609 8.55755 6.01849 8.13365 6.18333C7.69516 6.35359 7.32323 6.58141 6.95266 6.95208C6.58182 7.32266 6.35401 7.69458 6.18318 8.13292C6.01792 8.55698 5.90542 9.04156 5.87349 9.75099C5.84167 10.4621 5.83333 10.6895 5.83333 12.5001C5.83333 14.3106 5.84141 14.5372 5.87359 15.2483C5.90625 15.958 6.01859 16.4424 6.18333 16.8664C6.35375 17.3048 6.58151 17.6768 6.95224 18.0473C7.32266 18.4182 7.69458 18.6465 8.13281 18.8168C8.55698 18.9817 9.04156 19.094 9.75115 19.1265C10.4623 19.1589 10.6894 19.1668 12.4998 19.1668C14.3105 19.1668 14.537 19.1589 15.2482 19.1265C15.9579 19.094 16.4429 18.9817 16.8671 18.8168C17.3054 18.6465 17.6768 18.4182 18.0472 18.0473C18.4181 17.6768 18.6458 17.3048 18.8167 16.8665C18.9806 16.4424 19.0931 15.9579 19.1264 15.2484C19.1583 14.5373 19.1667 14.3106 19.1667 12.5001C19.1667 10.6895 19.1583 10.4623 19.1264 9.75115C19.0931 9.04141 18.9806 8.55698 18.8167 8.13307C18.6458 7.69458 18.4181 7.32266 18.0472 6.95208C17.6764 6.58125 17.3055 6.35349 16.8667 6.18333C16.4416 6.01849 15.9569 5.90609 15.2472 5.87359C14.536 5.84125 14.3097 5.83333 12.4985 5.83333H12.5006ZM12.2696 7.03408C12.1376 7.03403 12.0152 7.03398 11.9012 7.03414V7.03247C10.6587 7.03388 10.4203 7.04221 9.80532 7.06997C9.15532 7.09987 8.8024 7.2082 8.56735 7.29987C8.25626 7.42096 8.03402 7.56539 7.80068 7.79872C7.56735 8.03205 7.42266 8.25429 7.30183 8.56539C7.21058 8.80044 7.10193 9.1532 7.07225 9.8032C7.04027 10.506 7.03391 10.716 7.03391 12.4963C7.03391 14.2766 7.04027 14.4877 7.07225 15.1905C7.10183 15.8405 7.21058 16.1933 7.30183 16.428C7.42292 16.7392 7.56735 16.9609 7.80068 17.1942C8.03402 17.4276 8.25626 17.5721 8.56735 17.6929C8.80251 17.7841 9.15532 17.8927 9.80532 17.9227C10.5081 17.9547 10.7191 17.9616 12.4992 17.9616C14.2792 17.9616 14.4904 17.9547 15.1931 17.9227C15.8431 17.893 16.1962 17.7847 16.4309 17.693C16.7422 17.5722 16.9637 17.4277 17.197 17.1944C17.4304 16.9612 17.5751 16.7397 17.6959 16.4286C17.7872 16.1938 17.8958 15.8411 17.9255 15.191C17.9575 14.4883 17.9644 14.2772 17.9644 12.4979C17.9644 10.7188 17.9575 10.5077 17.9255 9.80487C17.8959 9.15487 17.7872 8.80211 17.6959 8.56737C17.5748 8.25622 17.4304 8.03403 17.197 7.8007C16.9639 7.56737 16.742 7.42289 16.4309 7.30205C16.1959 7.2108 15.8431 7.10221 15.1931 7.07247C14.4902 7.04054 14.2792 7.03414 12.4992 7.03414L12.277 7.03409L12.2696 7.03408ZM15.2579 8.94086C15.2579 8.49903 15.6162 8.14112 16.0579 8.14112V8.1408C16.4995 8.1408 16.8579 8.49914 16.8579 8.94086C16.8579 9.38252 16.4995 9.74086 16.0579 9.74086C15.6162 9.74086 15.2579 9.38252 15.2579 8.94086ZM12.4991 9.07586C10.6084 9.07591 9.07558 10.6088 9.07558 12.4995C9.07558 14.3902 10.6085 15.9224 12.4992 15.9224C14.39 15.9224 15.9223 14.3902 15.9223 12.4995C15.9223 10.6088 14.3898 9.07586 12.4991 9.07586Z" fill="white"/>
    <path d="M12.5519 10.2783C13.7843 10.2783 14.7835 11.2732 14.7835 12.5006C14.7835 13.7278 13.7843 14.7228 12.5519 14.7228C11.3194 14.7228 10.3203 13.7278 10.3203 12.5006C10.3203 11.2732 11.3194 10.2783 12.5519 10.2783Z" fill="white"/>
</svg>
