<svg width="143" height="51" viewBox="0 0 143 51" fill="none" xmlns="http://www.w3.org/2000/svg">
    <path fill-rule="evenodd" clip-rule="evenodd" d="M132.764 42.4297C131.213 42.5941 129.651 42.6392 128.092 42.5644C118.965 42.5644 111.566 34.1957 111.566 26.2911C111.635 23.7148 112.425 21.2039 113.853 19.0226C115.281 16.8412 117.295 15.0701 119.681 13.8953C121.029 13.1492 122.461 12.5516 123.949 12.1138C125.941 11.5964 127.991 11.3149 130.054 11.2754C132.992 11.2178 135.922 11.5862 138.745 12.3683L142.094 2.05338L139.197 1.54437C135.726 1.00835 132.214 0.762908 128.699 0.810797C110.756 0.810797 96.209 12.3982 96.209 26.0965C96.3405 30.0873 97.4814 33.9873 99.533 37.4591C101.585 40.931 104.485 43.8702 107.984 46.0227C113.217 49.3312 119.837 50.5139 127.079 50.4091C131.866 50.2547 136.562 49.1109 140.848 47.0557L139.01 41.4715C136.96 41.9617 134.871 42.2823 132.764 42.4297Z" fill="#0D47A1"/>
    <path fill-rule="evenodd" clip-rule="evenodd" d="M50.947 38.9776V25.0547H29.4997V32.3754L37.0226 32.9144V42.346C36.68 42.346 36.3373 42.4358 35.9947 42.4658C34.6516 42.5556 33.3037 42.5556 31.9606 42.4658C22.8179 42.5706 15.4819 34.2019 15.4819 26.2973C15.5468 23.7293 16.3265 21.225 17.74 19.0449C19.1534 16.8648 21.1489 15.0887 23.5188 13.9015C24.8704 13.1616 26.3013 12.5643 27.7865 12.1199C29.7836 11.6015 31.8393 11.32 33.9076 11.2816H34.5462C37.2496 11.2845 39.9393 11.6524 42.5363 12.3744L44.9194 4.40996L45.8383 1.9248L42.7232 1.43076C39.8375 0.996497 36.9219 0.771305 34.001 0.75708H32.4435C14.5474 0.75708 0 12.4044 0 26.0428C0.131495 30.0336 1.27238 33.9335 3.32401 37.4054C5.37563 40.8772 8.27623 43.8165 11.775 45.9689C12.6799 46.5436 13.6333 47.0444 14.6253 47.466C19.7563 49.6244 25.3387 50.6084 30.9327 50.3404C34.0659 50.2784 37.1727 49.774 40.1533 48.8433C40.7763 48.6487 42.1937 48.2744 43.72 47.6756C45.7448 46.8372 47.9721 45.7893 48.8132 45.3402C49.6543 44.891 50.3707 44.5916 50.9782 44.2772V38.9776H50.947Z" fill="#0D47A1"/>
    <path fill-rule="evenodd" clip-rule="evenodd" d="M75.0577 0.676607H62.208C61.5169 0.651676 60.8428 0.886133 60.3283 1.33038C59.8138 1.77462 59.4992 2.39381 59.4512 3.05697V3.2965V50.4096H75.0265V32.9237H84.9636L87.409 25.0641H74.9487V11.1412H92.0816L95.3057 0.751466H87.8295L75.0577 0.676607Z" fill="#0D47A1"/>
</svg>
