<svg width="151" height="50" viewBox="0 0 151 50" fill="none" xmlns="http://www.w3.org/2000/svg">
    <path d="M21.6118 25.7122V36.0163H16.0312V14.3865H21.6164V23.861H30.7536V14.3865H36.2882V36.0163H30.7536V25.7122H21.6118Z" fill="white"/>
    <path d="M58.6055 14.3865H67.1552C68.6284 14.3865 69.918 14.5306 71.0194 14.8231C72.1208 15.1156 73.0387 15.526 73.7684 16.05C74.498 16.5783 75.0488 17.2026 75.4205 17.923C75.7876 18.6478 75.9758 19.4337 75.9758 20.2851C75.9758 20.9007 75.8519 21.4858 75.5995 22.0316C75.3471 22.5773 74.9983 23.0838 74.5439 23.5466C74.0896 24.0094 73.5435 24.4198 72.901 24.7735C72.2585 25.1315 71.5518 25.424 70.7808 25.6598L78.8808 36.0119H72.8138L65.1865 26.2361H64.1952V36.0119H58.6101V14.3865H58.6055ZM64.1906 24.3412H65.3976C66.0814 24.3412 66.7101 24.2496 67.2929 24.0705C67.8758 23.8915 68.376 23.6339 68.8028 23.2977C69.2296 22.9615 69.56 22.5511 69.7987 22.0621C70.0373 21.5731 70.1612 21.0186 70.1612 20.403C70.1612 19.831 70.0694 19.3027 69.8858 18.8225C69.7023 18.3422 69.4453 17.9318 69.124 17.5868C68.7982 17.2419 68.4081 16.9712 67.9492 16.7791C67.4903 16.587 66.9946 16.4909 66.4577 16.4909H64.1952V24.3412H64.1906Z" fill="white"/>
    <path d="M102.836 25.1839C102.836 26.5855 103.06 27.8254 103.506 28.8995C103.951 29.9736 104.543 30.873 105.282 31.6021C106.02 32.3313 106.869 32.8858 107.829 33.2613C108.788 33.6368 109.788 33.8289 110.83 33.8289C111.624 33.8289 112.363 33.6979 113.051 33.4359C113.74 33.1739 114.382 32.8203 114.979 32.3749C115.575 31.9296 116.14 31.4144 116.663 30.8293C117.186 30.2443 117.691 29.6286 118.173 28.9781L120.504 30.6067C119.999 31.3707 119.394 32.113 118.687 32.8247C117.975 33.5363 117.182 34.1651 116.296 34.7065C115.415 35.2479 114.451 35.6801 113.414 36.0076C112.372 36.3307 111.275 36.4922 110.109 36.4922C108.154 36.4922 106.351 36.2215 104.703 35.6801C103.056 35.1387 101.633 34.3703 100.435 33.3835C99.2376 32.3968 98.3059 31.2048 97.6359 29.8208C96.9659 28.4323 96.6309 26.8867 96.6309 25.1883C96.6309 23.5423 96.9475 22.0228 97.5854 20.6431C98.2233 19.2591 99.1182 18.0671 100.275 17.0629C101.431 16.0587 102.817 15.2728 104.433 14.7096C106.048 14.1463 107.833 13.8625 109.788 13.8625C111.096 13.8625 112.294 14.0066 113.377 14.2992C114.46 14.5917 115.447 14.9977 116.337 15.5129C117.227 16.0281 118.021 16.6438 118.719 17.3642C119.416 18.0802 120.036 18.8705 120.573 19.735L118.228 21.2981C117.746 20.6475 117.223 20.0363 116.658 19.4643C116.094 18.888 115.493 18.3859 114.855 17.958C114.217 17.5257 113.547 17.1852 112.845 16.9363C112.143 16.6874 111.408 16.5608 110.646 16.5608C109.605 16.5608 108.613 16.7486 107.673 17.1197C106.727 17.4908 105.897 18.0409 105.181 18.7701C104.465 19.4992 103.896 20.3986 103.469 21.4727C103.047 22.5424 102.836 23.7824 102.836 25.1839Z" fill="white"/>
    <path d="M47.2601 38.5268C46.1449 38.4613 45.1215 38.2299 44.1945 37.8282C43.2674 37.4265 42.4781 36.8982 41.8264 36.252C41.1747 35.6015 40.6791 34.8549 40.3441 34.0079C40.0091 33.1608 39.8668 32.2614 39.9311 31.3009C39.9953 30.2748 40.2523 29.3361 40.6929 28.4934C41.138 27.6508 41.7209 26.9347 42.446 26.3453C43.1711 25.7559 44.0201 25.3149 44.9884 25.018C45.9567 24.7211 47.0031 24.6032 48.1183 24.6643C49.2335 24.7298 50.2569 24.9612 51.1885 25.3585C52.1201 25.7559 52.9095 26.2754 53.5657 26.9173C54.2174 27.5591 54.7176 28.297 55.0572 29.1353C55.4014 29.9735 55.5391 30.8599 55.4794 31.803C55.4152 32.7853 55.1628 33.7022 54.7176 34.5536C54.2725 35.405 53.685 36.1298 52.9508 36.7411C52.2165 37.3523 51.3629 37.8151 50.39 38.1426C49.4216 38.4613 48.3753 38.5923 47.2601 38.5268ZM47.8567 36.9201C48.2422 36.9419 48.6047 36.8415 48.9489 36.6232C49.2931 36.4005 49.6006 36.0949 49.8668 35.7063C50.133 35.3133 50.3532 34.8592 50.5185 34.3353C50.6837 33.8114 50.7846 33.2612 50.8213 32.6893C50.8764 31.8379 50.8581 31.0302 50.7755 30.2661C50.6883 29.5064 50.5139 28.834 50.2477 28.2489C49.9815 27.6639 49.619 27.1967 49.16 26.8343C48.7011 26.4763 48.1229 26.2754 47.4253 26.2361C47.0857 26.2187 46.7553 26.3147 46.4294 26.533C46.1036 26.7513 45.8099 27.0526 45.5437 27.4325C45.2821 27.8167 45.0618 28.262 44.8874 28.7729C44.7131 29.2837 44.6075 29.8251 44.5708 30.4014C44.5157 31.2616 44.5478 32.0824 44.6718 32.8596C44.7911 33.6367 44.993 34.3179 45.2729 34.9073C45.5529 35.4967 45.9109 35.9726 46.3422 36.3306C46.7782 36.693 47.2784 36.8895 47.8567 36.9201Z" fill="white"/>
    <path d="M87.8329 38.5922C86.8325 38.5922 85.8917 38.4176 85.0106 38.0639C84.1294 37.7102 83.363 37.2343 82.7113 36.6362C82.0597 36.038 81.5457 35.3438 81.1648 34.5535C80.7839 33.7633 80.5957 32.9293 80.5957 32.0474C80.5957 30.9908 80.7701 30.0128 81.1189 29.109C81.4677 28.2052 81.9633 27.4236 82.6058 26.76C83.2483 26.0963 84.0147 25.5811 84.9096 25.21C85.8045 24.8389 86.8004 24.6555 87.9018 24.6555C88.8839 24.6555 89.7834 24.804 90.6003 25.1009C91.4171 25.3978 92.1147 25.8038 92.6975 26.319C93.2804 26.8342 93.7301 27.4411 94.0514 28.1397C94.3726 28.8383 94.5332 29.5849 94.5332 30.3795H84.7765C84.8132 31.1218 84.9279 31.8291 85.1253 32.5015C85.3226 33.1738 85.5842 33.7633 85.9146 34.2741C86.2451 34.7849 86.6306 35.191 87.0757 35.4922C87.5209 35.7935 88.0119 35.942 88.5535 35.942C89.0216 35.942 89.4805 35.8677 89.9348 35.7149C90.3891 35.5621 90.8068 35.3525 91.1923 35.0862C91.5778 34.8199 91.9128 34.5099 92.1973 34.1562C92.4818 33.8026 92.6884 33.4227 92.8169 33.0123L94.9922 33.3397C94.7719 34.0645 94.4231 34.7456 93.9412 35.3831C93.4594 36.0206 92.8949 36.5794 92.2478 37.0597C91.6007 37.54 90.8986 37.9155 90.1367 38.1905C89.3841 38.4525 88.6131 38.5922 87.8329 38.5922ZM89.6365 28.9824C89.5998 28.5894 89.5126 28.2314 89.3703 27.9039C89.2281 27.5765 89.0491 27.297 88.8288 27.0613C88.6085 26.8255 88.3515 26.6465 88.0578 26.5199C87.7641 26.3932 87.4474 26.3277 87.1078 26.3277C86.8417 26.3277 86.5801 26.3932 86.3231 26.5199C86.0661 26.6465 85.8366 26.8255 85.6301 27.0569C85.4236 27.2883 85.2492 27.5677 85.1069 27.8952C84.9647 28.2226 84.8683 28.585 84.827 28.9867H89.6365V28.9824Z" fill="white"/>
    <path d="M121.99 28.2883C122.137 27.7294 122.394 27.2229 122.761 26.7645C123.128 26.306 123.583 25.9174 124.129 25.5987C124.675 25.28 125.299 25.0355 126.001 24.8608C126.703 24.6862 127.461 24.5989 128.278 24.5989C129.287 24.5989 130.159 24.6862 130.893 24.8608C131.628 25.0355 132.229 25.28 132.702 25.5987C133.174 25.9174 133.523 26.3017 133.748 26.7514C133.973 27.2011 134.083 27.7032 134.083 28.2621V35.9333C134.083 36.4835 134.262 36.9507 134.62 37.3349C134.978 37.7191 135.483 38.0378 136.134 38.2911H131.072C130.926 38.2911 130.783 38.2518 130.646 38.1732C130.508 38.0946 130.384 37.9942 130.274 37.8675C130.164 37.7409 130.067 37.6056 129.985 37.4571C129.902 37.3087 129.843 37.1646 129.806 37.0249C129.549 37.2519 129.306 37.4571 129.076 37.6449C128.847 37.8326 128.594 37.9898 128.319 38.1208C128.044 38.2518 127.736 38.3522 127.396 38.4264C127.057 38.5006 126.648 38.5356 126.171 38.5356C125.519 38.5356 124.937 38.4482 124.418 38.2736C123.899 38.0989 123.459 37.8588 123.096 37.5488C122.734 37.2388 122.458 36.8721 122.266 36.4486C122.073 36.025 121.977 35.5666 121.977 35.0689C121.977 34.3004 122.201 33.6411 122.651 33.091C123.101 32.5409 123.693 32.0606 124.432 31.6502C125.171 31.2398 126.006 30.8817 126.942 30.5761C127.878 30.2705 128.833 29.9779 129.806 29.6985V28.3887C129.806 27.9608 129.76 27.5984 129.668 27.2971C129.576 26.9959 129.448 26.7514 129.283 26.5636C129.117 26.3759 128.92 26.2405 128.686 26.1576C128.452 26.0746 128.195 26.0353 127.91 26.0353C127.571 26.0353 127.268 26.0965 127.002 26.2187C126.736 26.341 126.506 26.5069 126.313 26.7164C126.121 26.926 125.965 27.1662 125.845 27.4369C125.726 27.7076 125.639 27.9914 125.584 28.2883H121.99ZM129.806 31.3795C129.393 31.5454 128.975 31.7462 128.553 31.982C128.131 32.2178 127.754 32.4797 127.419 32.7723C127.084 33.0648 126.809 33.3879 126.593 33.7416C126.378 34.0952 126.272 34.4707 126.272 34.8724C126.272 35.3177 126.391 35.667 126.635 35.9203C126.878 36.1735 127.204 36.3001 127.617 36.3001C127.966 36.3001 128.31 36.204 128.649 36.0076C128.989 35.8111 129.374 35.5579 129.806 35.2435V31.3795Z" fill="white"/>
    <path d="M18.2752 42.4083H16.2422V41.7097H21.1848V42.4083H19.1472V48.0624H18.2752V42.4083Z" fill="white"/>
    <path d="M30.3392 45.0847H27.7417V47.3769H30.6329V48.0624H26.8789V41.7097H30.4861V42.3996H27.7417V44.408H30.3392V45.0847Z" fill="white"/>
    <path d="M41.3823 47.8529C41.0656 48.0057 40.4323 48.1542 39.62 48.1542C37.7384 48.1542 36.3203 47.0233 36.3203 44.9407C36.3203 42.9497 37.7384 41.605 39.8081 41.605C40.6388 41.605 41.1666 41.7753 41.3914 41.8888L41.1849 42.5568C40.8591 42.404 40.391 42.2948 39.8357 42.2948C38.2707 42.2948 37.229 43.2466 37.229 44.9145C37.229 46.4688 38.1698 47.4687 39.7944 47.4687C40.3175 47.4687 40.8545 47.3639 41.2033 47.2067L41.3823 47.8529Z" fill="white"/>
    <path d="M48.2749 41.7097V44.3687H51.5057V41.7097H52.3777V48.0624H51.5057V45.0847H48.2749V48.0624H47.4121V41.7097H48.2749Z" fill="white"/>
    <path d="M58.8301 48.0624V41.7097H59.7709L61.9095 44.9232C62.4051 45.6698 62.7906 46.3378 63.1073 46.9884L63.1256 46.9796C63.0476 46.1326 63.0246 45.3598 63.0246 44.3687V41.7097H63.8369V48.0624H62.965L60.8448 44.8402C60.3812 44.1329 59.9315 43.4081 59.5965 42.7183L59.5689 42.727C59.6194 43.5304 59.6378 44.2901 59.6378 45.3467V48.0624H58.8301Z" fill="white"/>
    <path d="M76.0119 44.8185C76.0119 47.0059 74.6168 48.1629 72.9096 48.1629C71.1473 48.1629 69.9082 46.8618 69.9082 44.9407C69.9082 42.9236 71.2253 41.605 73.0105 41.605C74.8325 41.605 76.0119 42.9323 76.0119 44.8185ZM70.8261 44.9232C70.8261 46.2811 71.597 47.4949 72.9555 47.4949C74.3231 47.4949 75.0941 46.2986 75.0941 44.8534C75.0941 43.5916 74.4011 42.2686 72.9646 42.2686C71.542 42.273 70.8261 43.5261 70.8261 44.9232Z" fill="white"/>
    <path d="M82.084 41.7097H82.9468V47.3769H85.8013V48.0624H82.084V41.7097Z" fill="white"/>
    <path d="M97.0353 44.8185C97.0353 47.0059 95.6402 48.1629 93.933 48.1629C92.1707 48.1629 90.9316 46.8618 90.9316 44.9407C90.9316 42.9236 92.2488 41.605 94.034 41.605C95.8559 41.605 97.0353 42.9323 97.0353 44.8185ZM91.8541 44.9232C91.8541 46.2811 92.6251 47.4949 93.9835 47.4949C95.3511 47.4949 96.1221 46.2986 96.1221 44.8534C96.1221 43.5916 95.4291 42.2686 93.9927 42.2686C92.57 42.273 91.8541 43.5261 91.8541 44.9232Z" fill="white"/>
    <path d="M108.192 47.7787C107.807 47.9097 107.045 48.128 106.141 48.128C105.131 48.128 104.296 47.8835 103.645 47.2897C103.071 46.7614 102.713 45.9144 102.713 44.9232C102.722 43.0283 104.09 41.6443 106.329 41.6443C107.1 41.6443 107.706 41.8058 107.995 41.9368L107.789 42.6048C107.431 42.452 106.985 42.3298 106.311 42.3298C104.686 42.3298 103.626 43.2903 103.626 44.884C103.626 46.4951 104.645 47.4469 106.201 47.4469C106.765 47.4469 107.151 47.3726 107.348 47.2766V45.3817H105.99V44.7224H108.188V47.7787H108.192Z" fill="white"/>
    <path d="M115.33 41.7097V48.0624H114.467V41.7097H115.33Z" fill="white"/>
    <path d="M125.245 45.0847H122.648V47.3769H125.539V48.0624H121.785V41.7097H125.392V42.3996H122.648V44.408H125.245V45.0847Z" fill="white"/>
    <path d="M131.501 47.0627C131.886 47.2897 132.451 47.4775 133.047 47.4775C133.929 47.4775 134.443 47.0365 134.443 46.3947C134.443 45.8009 134.085 45.4603 133.185 45.1328C132.093 44.7661 131.423 44.2291 131.423 43.334C131.423 42.3429 132.286 41.6094 133.584 41.6094C134.268 41.6094 134.764 41.7622 135.062 41.9194L134.823 42.5874C134.603 42.4739 134.158 42.2861 133.557 42.2861C132.644 42.2861 132.299 42.8057 132.299 43.2379C132.299 43.8317 132.703 44.1243 133.626 44.4648C134.755 44.8796 135.328 45.3992 135.328 46.3335C135.328 47.3159 134.566 48.1629 132.988 48.1629C132.345 48.1629 131.639 47.9839 131.285 47.7569L131.501 47.0627Z" fill="white"/>
</svg>
