<svg width="274" height="48" viewBox="0 0 274 48" fill="none" xmlns="http://www.w3.org/2000/svg">
    <path d="M30.958 0.436523H24.9421L39.4325 19.9349L26.9075 36.7924H10.9375V40.8311H29.9173L45.4448 19.9349L30.958 0.436523Z" fill="#FF8A00"/>
    <path d="M20.7162 28.3258L23.7296 32.3609L32.9657 19.9349L18.4752 0.436523H12.4629L26.9497 19.9349L20.7162 28.3258Z" fill="#FF8A00"/>
    <path d="M20.4919 19.9205L6.01594 0.436523H0L14.4796 19.9205H20.4919Z" fill="#FF8A00"/>
    <path d="M66.7332 17.3423L64.0941 10.0282L61.455 17.3423C61.4299 17.4051 61.3733 17.4365 61.2854 17.4365H58.9856C58.9227 17.4365 58.8787 17.4177 58.8536 17.38C58.8159 17.3297 58.8096 17.2794 58.8348 17.2292L63.9245 4.05244C63.9496 3.98961 63.9999 3.95819 64.0753 3.95819C64.1633 3.95819 64.2198 3.98961 64.2449 4.05244L69.3724 17.2292C69.4352 17.3674 69.3786 17.4365 69.2027 17.4365H66.9029C66.8149 17.4365 66.7584 17.4051 66.7332 17.3423ZM79.1375 4.05244C80.1806 4.05244 81.1231 4.24724 81.9651 4.63682C82.8071 5.01384 83.492 5.52909 84.0199 6.18259C84.5477 6.82351 84.9498 7.54613 85.2263 8.35043C85.5028 9.14216 85.641 9.96532 85.641 10.8199C85.641 11.6745 85.5028 12.5039 85.2263 13.3082C84.9498 14.0999 84.5477 14.8225 84.0199 15.476C83.492 16.117 82.8071 16.6322 81.9651 17.0218C81.1231 17.4114 80.1806 17.6062 79.1375 17.6062C77.7425 17.6062 76.5361 17.2731 75.5181 16.6071C74.5002 15.9285 73.7587 15.0865 73.2937 14.0811C72.8288 13.0757 72.5963 11.9886 72.5963 10.8199C72.5963 9.95275 72.7345 9.12331 73.011 8.33158C73.2875 7.53985 73.6833 6.82351 74.1986 6.18259C74.7264 5.52909 75.4176 5.01384 76.2722 4.63682C77.1267 4.24724 78.0819 4.05244 79.1375 4.05244ZM79.1375 15.231C80.3817 15.231 81.3493 14.7974 82.0405 13.9303C82.7443 13.0631 83.0962 12.0389 83.0962 10.8576C83.0962 9.6637 82.7443 8.63319 82.0405 7.76606C81.3493 6.88635 80.3817 6.4465 79.1375 6.4465C77.8808 6.4465 76.9005 6.88635 76.1968 7.76606C75.5056 8.63319 75.16 9.6637 75.16 10.8576C75.16 12.0389 75.5056 13.0631 76.1968 13.9303C76.9005 14.7974 77.8808 15.231 79.1375 15.231ZM92.8666 6.5973V17.2857C92.8666 17.3863 92.8101 17.4365 92.697 17.4365H90.5668C90.4411 17.4365 90.3783 17.3863 90.3783 17.2857V4.39176C90.3783 4.29122 90.4411 4.24095 90.5668 4.24095H98.503C98.6161 4.24095 98.6727 4.29122 98.6727 4.39176V6.4465C98.6727 6.54704 98.6161 6.5973 98.503 6.5973H92.8666ZM103.07 17.2857V4.39176C103.07 4.29122 103.127 4.24095 103.24 4.24095H105.408C105.521 4.24095 105.577 4.29122 105.577 4.39176V13.2139C106.269 12.2086 107.312 10.6754 108.707 8.61434C110.102 6.54075 111.076 5.10181 111.628 4.29751C111.641 4.2598 111.691 4.24095 111.779 4.24095H113.966C114.092 4.24095 114.154 4.29122 114.154 4.39176V17.2857C114.154 17.3863 114.092 17.4365 113.966 17.4365H111.798C111.672 17.4365 111.61 17.3863 111.61 17.2857V8.29388L105.577 17.3611C105.552 17.4114 105.508 17.4365 105.445 17.4365H103.24C103.127 17.4365 103.07 17.3863 103.07 17.2857ZM125.495 15.1933C126.613 15.1933 127.574 14.7911 128.379 13.9868C128.467 13.924 128.555 13.924 128.643 13.9868L130.132 15.4949C130.232 15.5703 130.232 15.6457 130.132 15.7211C128.863 16.9904 127.317 17.625 125.495 17.625C123.635 17.625 122.07 17.0092 120.801 15.7777C119.531 14.5335 118.897 12.906 118.897 10.8953C118.897 8.92224 119.513 7.2885 120.744 5.99408C121.988 4.69966 123.572 4.05244 125.495 4.05244C127.342 4.05244 128.888 4.68709 130.132 5.95638C130.232 6.03178 130.232 6.10718 130.132 6.18259L128.643 7.6718C128.555 7.73464 128.467 7.73464 128.379 7.6718C127.549 6.8675 126.588 6.46535 125.495 6.46535C124.263 6.46535 123.276 6.88635 122.535 7.72835C121.806 8.55779 121.442 9.61343 121.442 10.8953C121.442 12.1897 121.825 13.2328 122.592 14.0245C123.371 14.8037 124.338 15.1933 125.495 15.1933ZM141.457 4.50486V6.46535C141.457 6.55332 141.394 6.5973 141.268 6.5973H138.761V17.2857C138.761 17.3863 138.705 17.4365 138.591 17.4365H136.461C136.348 17.4365 136.292 17.3863 136.292 17.2857V6.5973H133.784C133.659 6.5973 133.596 6.55332 133.596 6.46535V4.50486C133.596 4.40433 133.659 4.35406 133.784 4.35406H141.268C141.394 4.35406 141.457 4.40433 141.457 4.50486ZM145.503 17.2857V4.39176C145.503 4.29122 145.56 4.24095 145.673 4.24095H147.841C147.954 4.24095 148.011 4.29122 148.011 4.39176V13.2139C148.702 12.2086 149.745 10.6754 151.14 8.61434C152.535 6.54075 153.509 5.10181 154.062 4.29751C154.074 4.2598 154.125 4.24095 154.213 4.24095H156.399C156.525 4.24095 156.588 4.29122 156.588 4.39176V17.2857C156.588 17.3863 156.525 17.4365 156.399 17.4365H154.231C154.106 17.4365 154.043 17.3863 154.043 17.2857V8.29388L148.011 17.3611C147.985 17.4114 147.941 17.4365 147.879 17.4365H145.673C145.56 17.4365 145.503 17.3863 145.503 17.2857ZM170.642 17.4365H168.493C168.368 17.4365 168.305 17.3863 168.305 17.2857V12.5353C167.601 12.9375 166.79 13.1385 165.873 13.1385C164.541 13.1385 163.441 12.7364 162.574 11.9321C161.707 11.1152 161.273 10.047 161.273 8.72745V4.39176C161.273 4.29122 161.336 4.24095 161.462 4.24095H163.592C163.718 4.24095 163.781 4.29122 163.781 4.39176V8.7086C163.856 9.34952 164.12 9.85221 164.572 10.2167C165.025 10.5685 165.559 10.7445 166.175 10.7445C166.966 10.7445 167.676 10.4931 168.305 9.99045V4.39176C168.305 4.29122 168.368 4.24095 168.493 4.24095H170.642C170.755 4.24095 170.812 4.29122 170.812 4.39176V17.2857C170.812 17.3863 170.755 17.4365 170.642 17.4365ZM184.709 6.63501H178.488V9.68884H183.635C183.748 9.68884 183.804 9.73911 183.804 9.83964V11.8944C183.804 11.9949 183.748 12.0452 183.635 12.0452H178.488V15.0613H184.709C184.835 15.0613 184.898 15.1116 184.898 15.2121V17.2857C184.898 17.3863 184.835 17.4365 184.709 17.4365H176.17C176.057 17.4365 176 17.3863 176 17.2857V4.39176C176 4.29122 176.057 4.24095 176.17 4.24095H184.709C184.835 4.24095 184.898 4.29122 184.898 4.39176V6.4842C184.898 6.58474 184.835 6.63501 184.709 6.63501ZM195.536 15.1933C196.654 15.1933 197.615 14.7911 198.42 13.9868C198.508 13.924 198.596 13.924 198.684 13.9868L200.173 15.4949C200.273 15.5703 200.273 15.6457 200.173 15.7211C198.904 16.9904 197.358 17.625 195.536 17.625C193.676 17.625 192.111 17.0092 190.842 15.7777C189.572 14.5335 188.938 12.906 188.938 10.8953C188.938 8.92224 189.554 7.2885 190.785 5.99408C192.029 4.69966 193.613 4.05244 195.536 4.05244C197.383 4.05244 198.929 4.68709 200.173 5.95638C200.273 6.03178 200.273 6.10718 200.173 6.18259L198.684 7.6718C198.596 7.73464 198.508 7.73464 198.42 7.6718C197.59 6.8675 196.629 6.46535 195.536 6.46535C194.304 6.46535 193.317 6.88635 192.576 7.72835C191.847 8.55779 191.483 9.61343 191.483 10.8953C191.483 12.1897 191.866 13.2328 192.632 14.0245C193.412 14.8037 194.379 15.1933 195.536 15.1933ZM215.192 4.48601L209.952 10.9518L215.23 17.1915C215.28 17.2543 215.287 17.3109 215.249 17.3611C215.224 17.4114 215.167 17.4365 215.079 17.4365H212.271C212.208 17.4365 212.158 17.4177 212.12 17.38L208.274 12.6296C208.211 12.6924 208.061 12.8683 207.822 13.1574C207.596 13.4339 207.413 13.6412 207.275 13.7795V17.2857C207.275 17.3863 207.212 17.4365 207.087 17.4365H204.938C204.812 17.4365 204.749 17.3863 204.749 17.2857V4.39176C204.749 4.29122 204.812 4.24095 204.938 4.24095H207.087C207.212 4.24095 207.275 4.29122 207.275 4.39176V10.4994L212.214 4.29751C212.252 4.2598 212.302 4.24095 212.365 4.24095H215.042C215.13 4.24095 215.186 4.26609 215.211 4.31636C215.249 4.36662 215.243 4.42318 215.192 4.48601ZM219.281 17.2857V4.39176C219.281 4.29122 219.338 4.24095 219.451 4.24095H221.619C221.732 4.24095 221.789 4.29122 221.789 4.39176V13.2139C222.48 12.2086 223.523 10.6754 224.918 8.61434C226.313 6.54075 227.287 5.10181 227.84 4.29751C227.852 4.2598 227.903 4.24095 227.991 4.24095H230.177C230.303 4.24095 230.366 4.29122 230.366 4.39176V17.2857C230.366 17.3863 230.303 17.4365 230.177 17.4365H228.009C227.884 17.4365 227.821 17.3863 227.821 17.2857V8.29388L221.789 17.3611C221.763 17.4114 221.72 17.4365 221.657 17.4365H219.451C219.338 17.4365 219.281 17.3863 219.281 17.2857ZM244.251 6.63501H238.03V9.68884H243.176C243.289 9.68884 243.346 9.73911 243.346 9.83964V11.8944C243.346 11.9949 243.289 12.0452 243.176 12.0452H238.03V15.0613H244.251C244.376 15.0613 244.439 15.1116 244.439 15.2121V17.2857C244.439 17.3863 244.376 17.4365 244.251 17.4365H235.711C235.598 17.4365 235.542 17.3863 235.542 17.2857V4.39176C235.542 4.29122 235.598 4.24095 235.711 4.24095H244.251C244.376 4.24095 244.439 4.29122 244.439 4.39176V6.4842C244.439 6.58474 244.376 6.63501 244.251 6.63501ZM64.7162 29.241C64.9299 29.241 65.1561 29.2535 65.3948 29.2787C65.6462 29.2912 66.0169 29.3729 66.507 29.5237C66.9972 29.6745 67.4182 29.8756 67.77 30.1269C68.1345 30.3783 68.4612 30.7742 68.7503 31.3145C69.0393 31.8549 69.1839 32.4896 69.1839 33.2185C69.1839 33.7463 69.1022 34.2239 68.9388 34.6511C68.788 35.0784 68.5932 35.4303 68.3544 35.7068C68.1282 35.9707 67.8517 36.2032 67.525 36.4043C67.1982 36.5928 66.8966 36.731 66.6201 36.819C66.3437 36.907 66.0483 36.9824 65.7342 37.0452C65.42 37.0955 65.1938 37.1269 65.0555 37.1394C64.9298 37.1394 64.8167 37.1394 64.7162 37.1394H62.7557V42.3234C62.7557 42.424 62.6992 42.4742 62.5861 42.4742H60.4371C60.324 42.4742 60.2674 42.424 60.2674 42.3234V29.3918C60.2674 29.2912 60.324 29.241 60.4371 29.241H64.7162ZM64.7162 34.7077C64.867 34.7077 65.0178 34.6951 65.1686 34.67C65.332 34.6449 65.5394 34.5946 65.7907 34.5192C66.0546 34.4312 66.2683 34.2804 66.4316 34.0668C66.595 33.8406 66.6767 33.5578 66.6767 33.2185C66.6767 32.942 66.6139 32.7032 66.4882 32.5021C66.3751 32.2885 66.2368 32.1314 66.0735 32.0309C65.9227 31.9303 65.7404 31.8549 65.5268 31.8047C65.3257 31.7418 65.1623 31.7041 65.0367 31.6916C64.9236 31.679 64.8167 31.6727 64.7162 31.6727H62.7557V34.7077H64.7162ZM82.2005 31.635H75.9797V34.6888H81.126C81.2391 34.6888 81.2956 34.7391 81.2956 34.8396V36.8944C81.2956 36.9949 81.2391 37.0452 81.126 37.0452H75.9797V40.0613H82.2005C82.3261 40.0613 82.389 40.1116 82.389 40.2121V42.2857C82.389 42.3863 82.3261 42.4365 82.2005 42.4365H73.661C73.5479 42.4365 73.4914 42.3863 73.4914 42.2857V29.3918C73.4914 29.2912 73.5479 29.241 73.661 29.241H82.2005C82.3261 29.241 82.389 29.2912 82.389 29.3918V31.4842C82.389 31.5847 82.3261 31.635 82.2005 31.635ZM102.66 42.4365H87.1077C86.9946 42.4365 86.938 42.3863 86.938 42.2857V29.3918C86.938 29.2912 86.9946 29.241 87.1077 29.241H89.2567C89.3698 29.241 89.4263 29.2912 89.4263 29.3918V40.0425H93.6489V29.3918C93.6489 29.2912 93.7118 29.241 93.8374 29.241H95.9299C96.0555 29.241 96.1184 29.2912 96.1184 29.3918V40.0425H100.341V29.3918C100.341 29.2912 100.404 29.241 100.529 29.241H102.66C102.785 29.241 102.848 29.2912 102.848 29.3918V42.2857C102.848 42.3863 102.785 42.4365 102.66 42.4365ZM116.914 31.635H110.693V34.6888H115.84C115.953 34.6888 116.009 34.7391 116.009 34.8396V36.8944C116.009 36.9949 115.953 37.0452 115.84 37.0452H110.693V40.0613H116.914C117.04 40.0613 117.103 40.1116 117.103 40.2121V42.2857C117.103 42.3863 117.04 42.4365 116.914 42.4365H108.375C108.262 42.4365 108.205 42.3863 108.205 42.2857V29.3918C108.205 29.2912 108.262 29.241 108.375 29.241H116.914C117.04 29.241 117.103 29.2912 117.103 29.3918V31.4842C117.103 31.5847 117.04 31.635 116.914 31.635ZM129.305 29.241H131.454C131.58 29.241 131.643 29.2912 131.643 29.3918V42.2857C131.643 42.3863 131.58 42.4365 131.454 42.4365H129.305C129.179 42.4365 129.117 42.3863 129.117 42.2857V37.064H124.121V42.2857C124.121 42.3863 124.058 42.4365 123.933 42.4365H121.784C121.658 42.4365 121.595 42.3863 121.595 42.2857V29.3918C121.595 29.2912 121.658 29.241 121.784 29.241H123.933C124.058 29.241 124.121 29.2912 124.121 29.3918V34.5946H129.117V29.3918C129.117 29.2912 129.179 29.241 129.305 29.241ZM136.845 42.2857V29.3918C136.845 29.2912 136.901 29.241 137.015 29.241H139.182C139.296 29.241 139.352 29.2912 139.352 29.3918V38.2139C140.043 37.2086 141.086 35.6754 142.481 33.6143C143.876 31.5408 144.85 30.1018 145.403 29.2975C145.416 29.2598 145.466 29.241 145.554 29.241H147.741C147.866 29.241 147.929 29.2912 147.929 29.3918V42.2857C147.929 42.3863 147.866 42.4365 147.741 42.4365H145.573C145.447 42.4365 145.384 42.3863 145.384 42.2857V33.2939L139.352 42.3611C139.327 42.4114 139.283 42.4365 139.22 42.4365H137.015C136.901 42.4365 136.845 42.3863 136.845 42.2857ZM157.478 37.1017L155.066 42.3423C155.04 42.4051 154.984 42.4365 154.896 42.4365H152.54C152.364 42.4365 152.307 42.3674 152.37 42.2292L154.934 36.7059C153.312 36.0398 152.502 34.8836 152.502 33.2373C152.502 32.5084 152.634 31.8801 152.898 31.3522C153.162 30.8119 153.463 30.4097 153.803 30.1458C154.142 29.8819 154.55 29.6808 155.028 29.5426C155.505 29.3918 155.876 29.3038 156.14 29.2787C156.404 29.2535 156.68 29.241 156.969 29.241H161.211C161.337 29.241 161.399 29.2912 161.399 29.3918V42.2857C161.399 42.3863 161.337 42.4365 161.211 42.4365H159.081C158.955 42.4365 158.892 42.3863 158.892 42.2857V37.1017H157.478ZM158.892 34.9527V31.6162H156.969C156.731 31.6162 156.486 31.6476 156.234 31.7104C155.983 31.7607 155.713 31.9178 155.424 32.1817C155.147 32.4456 155.009 32.7975 155.009 33.2373C155.009 33.5766 155.078 33.872 155.216 34.1233C155.355 34.3621 155.531 34.538 155.744 34.6511C155.97 34.7642 156.178 34.8459 156.366 34.8962C156.567 34.9339 156.768 34.9527 156.969 34.9527H158.892Z" fill="#0D47A1"/>
</svg>
