<svg width="100" height="44" viewBox="0 0 100 44" fill="none" xmlns="http://www.w3.org/2000/svg">
    <path d="M67.5547 32.8312L83.0249 0.5L29.0667 0.608319C19.5384 0.608319 11.7766 7.0529 11.7766 14.9597C11.7766 19.8338 14.7743 24.1663 19.2708 26.7657C19.5919 26.9282 20.8767 27.2531 21.0908 27.2531C26.1226 27.0365 41.3251 27.199 41.3251 27.199C43.2522 27.199 44.8045 28.4987 44.8045 30.0693C44.8045 31.694 43.2522 32.9937 41.3251 32.9937H29.2809L5.03181 33.0479L0 43.5L93.8914 43.3375C93.8914 43.3375 98.8697 32.9937 99.0303 32.8312C98.4415 32.9396 67.983 32.8312 67.5547 32.8312ZM60.81 23.0831C57.9729 19.6171 53.4228 17.2343 48.1234 16.8552H33.0279C31.1009 16.8552 29.5485 15.5554 29.5485 13.9849C29.5485 12.3602 31.1009 11.0605 33.0279 11.0605H45.7681L66.5912 11.0063L60.81 23.0831Z" fill="#0B2967"/>
</svg>
